<svg version="1.1" viewBox="0.0 0.0 36.0 36.0" fill="none" stroke="none" stroke-linecap="square" stroke-miterlimit="10" xmlns:xlink="http://www.w3.org/1999/xlink" xmlns="http://www.w3.org/2000/svg"><clipPath id="p.0"><path d="m0 0l36.0 0l0 36.0l-36.0 0l0 -36.0z" clip-rule="nonzero"/></clipPath><g clip-path="url(#p.0)"><path fill="#000000" fill-opacity="0.0" d="m0 0l36.0 0l0 36.0l-36.0 0z" fill-rule="evenodd"/><path fill="#000000" fill-opacity="0.0" d="m-2.3700788 -11.889764l31.811024 0l0 59.779526l-31.811024 0z" fill-rule="evenodd"/><path fill="#000000" d="m12.098671 20.578987l-4.4062495 3.203125q0.7656245 1.734375 2.2656245 3.15625q1.5 1.40625 3.546875 2.21875q2.0625 0.8125 4.453125 0.8125q1.703125 0 3.328125 -0.484375q1.640625 -0.46875 2.921875 -1.421875q1.28125 -0.953125 2.03125 -2.375q0.75 -1.4375 0.75 -3.3125q0 -1.390625 -0.4375 -2.515625q-0.421875 -1.140625 -1.234375 -2.03125q-0.796875 -0.890625 -1.875 -1.53125q-1.078125 -0.65625095 -2.375 -1.125001q-1.5 -0.53125 -2.65625 -0.96875q-1.15625 -0.453125 -1.8125 -0.96875q-0.640625 -0.515625 -0.640625 -1.28125q0 -0.671875 0.5625 -1.0625q0.578125 -0.40625 1.546875 -0.40625q0.765625 0 1.5 0.296875q0.734375 0.296875 1.375 0.84375q0.65625 0.546875 1.15625 1.390625l4.859375 -2.703125q-0.625 -1.203125 -1.796875 -2.375q-1.171875 -1.1875 -2.96875 -1.96875q-1.796875 -0.78125 -4.265625 -0.78125q-2.359375 0 -4.296875 0.796875q-1.9375 0.796875 -3.109375 2.3125q-1.15625 1.515625 -1.15625 3.71875q0 1.734375 0.640625 3.0q0.65625 1.265626 1.640625 2.140626q0.984375 0.859375 2.046875 1.40625q1.0625 0.546875 1.9375 0.875q1.765625 0.671875 2.75 1.140625q0.984375 0.46875 1.375 0.921875q0.40625 0.4375 0.40625 1.109375q0 0.9375 -0.703125 1.421875q-0.703125 0.484375 -1.765625 0.484375q-1.09375 0 -2.125 -0.46875q-1.03125 -0.46875 -1.90625 -1.34375q-0.859375 -0.890625 -1.5625 -2.125z" fill-rule="nonzero"/></g></svg>